<svg width="31" height="29" viewBox="0 0 31 29" fill="none" xmlns="http://www.w3.org/2000/svg">
<rect x="0.625" width="30.2083" height="29" rx="6" fill="#3396FD"/>
<path d="M12.6667 8.125H12.525C11.3349 8.125 10.7398 8.125 10.2853 8.35661C9.88543 8.56034 9.56034 8.88543 9.35661 9.28527C9.125 9.73983 9.125 10.3349 9.125 11.525V11.6667M12.6667 20.875H12.525C11.3349 20.875 10.7398 20.875 10.2853 20.6434C9.88543 20.4397 9.56034 20.1146 9.35661 19.7147C9.125 19.2602 9.125 18.6651 9.125 17.475V17.3333M21.875 11.6667V11.525C21.875 10.3349 21.875 9.73983 21.6434 9.28527C21.4397 8.88543 21.1146 8.56034 20.7147 8.35661C20.2602 8.125 19.6651 8.125 18.475 8.125H18.3333M21.875 17.3333V17.475C21.875 18.6651 21.875 19.2602 21.6434 19.7147C21.4397 20.1146 21.1146 20.4397 20.7147 20.6434C20.2602 20.875 19.6651 20.875 18.475 20.875H18.3333M9.125 14.5H9.13208M12.3125 14.5H12.3196M18.6875 14.5H18.6946M15.5 14.5H15.5071M21.875 14.5H21.8821" stroke="white" stroke-width="2" stroke-linecap="round" stroke-linejoin="round"/>
</svg>
