<svg width="24" height="24" viewBox="0 0 24 24" fill="none" xmlns="http://www.w3.org/2000/svg">
<g id="icon/account settings">
<path id="Shape" fill-rule="evenodd" clip-rule="evenodd" d="M10.4286 3C8.06925 3 6.14286 4.92639 6.14286 7.28571C6.14286 9.64503 8.06925 11.5714 10.4286 11.5714C12.7879 11.5714 14.7143 9.64503 14.7143 7.28571C14.7143 4.92639 12.7879 3 10.4286 3ZM10.4286 4.28571C12.093 4.28571 13.4286 5.62124 13.4286 7.28571C13.4286 8.95018 12.093 10.2857 10.4286 10.2857C8.7641 10.2857 7.42857 8.95018 7.42857 7.28571C7.42857 5.62124 8.7641 4.28571 10.4286 4.28571ZM16 11.5714C15.7484 11.5714 15.5021 11.5927 15.2617 11.6334L15.1136 12.2469C14.8834 13.2005 13.9022 13.7673 12.9615 13.4891L12.445 13.3359C12.1347 13.7358 11.8861 14.1903 11.7143 14.6819L12.0977 15.0502C12.7984 15.7248 12.7984 16.8466 12.0977 17.5212L11.7143 17.8903C11.8861 18.3819 12.1343 18.8352 12.445 19.2355L12.9615 19.0831C13.9022 18.805 14.8834 19.3718 15.1136 20.3253L15.2617 20.9389C15.5021 20.9792 15.7489 21 16 21C16.2516 21 16.4979 20.9788 16.7383 20.9381L16.8864 20.3245C17.1166 19.3709 18.0978 18.8042 19.0385 19.0823L19.555 19.2355C19.8653 18.8356 20.1139 18.3811 20.2857 17.8895L19.9023 17.5212C19.2016 16.8471 19.2016 15.7244 19.9023 15.0502L20.2857 14.6819C20.1139 14.1903 19.8657 13.7362 19.555 13.3359L19.0385 13.4891C18.0978 13.7673 17.1166 13.2005 16.8864 12.2469L16.7383 11.6334C16.4979 11.5927 16.2516 11.5714 16 11.5714ZM5.92857 13.2857C4.86529 13.2857 4 14.151 4 15.2143V15.7282C4 18.2037 7.012 20.1429 10.8571 20.1429C11.2253 20.1429 11.583 20.1194 11.9336 20.0851C11.589 19.7165 11.2929 19.3034 11.058 18.8513C10.9903 18.8526 10.9257 18.8571 10.8571 18.8571C7.41614 18.8571 5.28571 17.233 5.28571 15.7282V15.2143C5.28571 14.8599 5.57414 14.5714 5.92857 14.5714H10.7006C10.8485 14.1137 11.0558 13.683 11.3108 13.2857H5.92857ZM16 15C16.7101 15 17.2857 15.5756 17.2857 16.2857C17.2857 16.9959 16.7101 17.5714 16 17.5714C15.2899 17.5714 14.7143 16.9959 14.7143 16.2857C14.7143 15.5756 15.2899 15 16 15Z" fill="#090710"/>
</g>
</svg>
