<svg width="24" height="24" viewBox="0 0 24 24" fill="none" xmlns="http://www.w3.org/2000/svg">
<path fill-rule="evenodd" clip-rule="evenodd" d="M12 3C7.03743 3 3 7.03743 3 12C3 16.9626 7.03743 21 12 21C16.9626 21 21 16.9626 21 12C21 7.03743 16.9626 3 12 3ZM12 4.35C16.233 4.35 19.65 7.76703 19.65 12C19.65 16.233 16.233 19.65 12 19.65C7.76702 19.65 4.35 16.233 4.35 12C4.35 7.76703 7.76702 4.35 12 4.35ZM11.9895 7.49033C11.617 7.49615 11.3197 7.80255 11.325 8.175V11.325H8.175C7.93157 11.3216 7.70515 11.4495 7.58243 11.6597C7.45971 11.87 7.45971 12.13 7.58243 12.3403C7.70515 12.5505 7.93157 12.6784 8.175 12.675H11.325V15.825C11.3216 16.0684 11.4495 16.2949 11.6597 16.4176C11.87 16.5403 12.13 16.5403 12.3403 16.4176C12.5505 16.2949 12.6784 16.0684 12.675 15.825V12.675H15.825C16.0684 12.6784 16.2949 12.5505 16.4176 12.3403C16.5403 12.13 16.5403 11.87 16.4176 11.6597C16.2949 11.4495 16.0684 11.3216 15.825 11.325H12.675V8.175C12.6776 7.99247 12.6062 7.81666 12.477 7.68767C12.3479 7.55867 12.172 7.48748 11.9895 7.49033Z" fill="#090710"/>
</svg>
