<svg width="24" height="24" viewBox="0 0 24 24" fill="none" xmlns="http://www.w3.org/2000/svg">
<path d="M8.64838 19.1C9.283 19.6601 10.1166 20 11.0296 20C11.9426 20 12.7762 19.6601 13.4109 19.1M2.29412 5.4379C2.28121 4.13169 2.98544 2.91192 4.12311 2.27M19.7615 5.43791C19.7745 4.1317 19.0702 2.91193 17.9325 2.27M16.4296 7.4C16.4296 5.96783 15.8607 4.59432 14.848 3.58162C13.8353 2.56893 12.4618 2 11.0296 2C9.59745 2 8.22394 2.56893 7.21124 3.58162C6.19855 4.59432 5.62962 5.96783 5.62962 7.4C5.62962 10.1812 4.92804 12.0854 4.14432 13.3449C3.48323 14.4073 3.15269 14.9385 3.16481 15.0867C3.17823 15.2508 3.21299 15.3133 3.34522 15.4114C3.46463 15.5 4.00295 15.5 5.07959 15.5H16.9796C18.0563 15.5 18.5946 15.5 18.714 15.4114C18.8462 15.3133 18.881 15.2508 18.8944 15.0867C18.9065 14.9385 18.576 14.4073 17.9149 13.3449C17.1312 12.0854 16.4296 10.1812 16.4296 7.4Z" stroke="black" stroke-width="1.5" stroke-linecap="round" stroke-linejoin="round"/>
</svg>
