<svg width="24" height="24" viewBox="0 0 24 24" fill="none" xmlns="http://www.w3.org/2000/svg">
<path fill-rule="evenodd" clip-rule="evenodd" d="M11.7627 3C11.0434 3 10.3759 3.38337 10.0137 4.00459L9.0249 5.7H7.95V5.475C7.95 5.10195 7.6476 4.8 7.275 4.8H5.925C5.5524 4.8 5.25 5.10195 5.25 5.475V5.78262C3.96526 6.0903 3 7.25016 3 8.625V17.175C3 18.7824 4.31763 20.1 5.925 20.1H18.075C19.6824 20.1 21 18.7824 21 17.175V8.625C21 7.01763 19.6824 5.7 18.075 5.7H17.6751L16.6863 4.00459C16.3241 3.38337 15.6566 3 14.9373 3H11.7627ZM11.7627 4.35H14.9373C15.1783 4.35 15.3989 4.47718 15.52 4.68486L16.7048 6.71514C16.8257 6.92239 17.0476 7.04987 17.2875 7.05H18.075C18.9525 7.05 19.65 7.74747 19.65 8.625V17.175C19.65 18.0525 18.9525 18.75 18.075 18.75H5.925C5.04747 18.75 4.35 18.0525 4.35 17.175V8.625C4.35 7.74747 5.04747 7.05 5.925 7.05H9.4125C9.65245 7.04987 9.87429 6.92239 9.99521 6.71514L11.18 4.68486C11.3011 4.47718 11.5217 4.35 11.7627 4.35ZM6.375 8.4C6.00221 8.4 5.7 8.70221 5.7 9.075C5.7 9.44779 6.00221 9.75 6.375 9.75C6.74779 9.75 7.05 9.44779 7.05 9.075C7.05 8.70221 6.74779 8.4 6.375 8.4ZM13.35 8.4C11.1212 8.4 9.3 10.2212 9.3 12.45C9.3 14.6788 11.1212 16.5 13.35 16.5C15.5788 16.5 17.4 14.6788 17.4 12.45C17.4 10.2212 15.5788 8.4 13.35 8.4ZM13.35 9.75C14.8492 9.75 16.05 10.9508 16.05 12.45C16.05 13.9492 14.8492 15.15 13.35 15.15C11.8508 15.15 10.65 13.9492 10.65 12.45C10.65 10.9508 11.8508 9.75 13.35 9.75Z" fill="#090710"/>
</svg>
