<svg width="23" height="24" viewBox="0 0 23 24" fill="none" xmlns="http://www.w3.org/2000/svg">
<path d="M20 9.5H2M2 7.88L2 14.72C2 15.7281 2 16.2321 2.19619 16.6172C2.36876 16.9559 2.64413 17.2312 2.98282 17.4038C3.36786 17.6 3.87191 17.6 4.88 17.6L17.12 17.6C18.1281 17.6 18.6321 17.6 19.0172 17.4038C19.3559 17.2312 19.6312 16.9559 19.8038 16.6172C20 16.2321 20 15.7281 20 14.72V7.88C20 6.87191 20 6.36786 19.8038 5.98282C19.6312 5.64413 19.3559 5.36876 19.0172 5.19619C18.6321 5 18.1281 5 17.12 5L4.88 5C3.87191 5 3.36786 5 2.98282 5.19619C2.64413 5.36876 2.36876 5.64413 2.19619 5.98282C2 6.36786 2 6.87191 2 7.88Z" stroke="black" stroke-width="1.5" stroke-linecap="round" stroke-linejoin="round"/>
</svg>
