<svg width="24" height="24" viewBox="0 0 24 24" fill="none" xmlns="http://www.w3.org/2000/svg">
<g id="cube-02">
<path id="Icon" d="M12 3.31648V11.7609M12 11.7609L19.5556 7.56333M12 11.7609L4.44444 7.56333M12 11.7609V20.2054M19.5556 15.9585L12.6907 12.1446C12.4386 12.0046 12.3126 11.9346 12.1791 11.9071C12.0609 11.8828 11.9391 11.8828 11.8209 11.9071C11.6874 11.9346 11.5614 12.0046 11.3093 12.1446L4.44444 15.9585M20 15.3685V8.15332C20 7.84875 20 7.69646 19.9551 7.56064C19.9154 7.44049 19.8505 7.33019 19.7648 7.23713C19.6678 7.13194 19.5347 7.05799 19.2685 6.91007L12.6907 3.25575C12.4386 3.1157 12.3126 3.04568 12.1791 3.01822C12.0609 2.99393 11.9391 2.99393 11.8209 3.01822C11.6874 3.04568 11.5614 3.1157 11.3093 3.25575L4.73153 6.91008C4.46529 7.05799 4.33216 7.13195 4.23523 7.23714C4.14947 7.33019 4.08458 7.44049 4.04488 7.56064C4 7.69647 4 7.84875 4 8.15332V15.3685C4 15.6731 4 15.8254 4.04488 15.9612C4.08458 16.0814 4.14947 16.1917 4.23523 16.2847C4.33216 16.3899 4.46529 16.4639 4.73153 16.6118L11.3093 20.2661C11.5614 20.4061 11.6874 20.4762 11.8209 20.5036C11.9391 20.5279 12.0609 20.5279 12.1791 20.5036C12.3126 20.4762 12.4386 20.4061 12.6907 20.2661L19.2685 16.6118C19.5347 16.4639 19.6678 16.3899 19.7648 16.2847C19.8505 16.1917 19.9154 16.0814 19.9551 15.9612C20 15.8254 20 15.6731 20 15.3685Z" stroke="black" stroke-width="1.5" stroke-linecap="round" stroke-linejoin="round"/>
</g>
</svg>
