<svg width="20" height="20" viewBox="0 0 20 20" fill="none" xmlns="http://www.w3.org/2000/svg">
<g id="edit-04">
<g id="Solid">
<path fill-rule="evenodd" clip-rule="evenodd" d="M18.0622 14.3848C18.4018 14.6953 18.4255 15.2224 18.115 15.5621L17.2816 16.4738C16.6902 17.1205 15.8714 17.4999 15 17.4999C14.1289 17.4999 13.3104 17.1208 12.7191 16.4745C12.4258 16.1551 12.0456 15.9916 11.6667 15.9916C11.2877 15.9916 10.9073 16.1553 10.6139 16.475C10.3028 16.8141 9.77564 16.8368 9.43652 16.5256C9.09739 16.2145 9.07471 15.6873 9.38586 15.3482C9.9778 14.703 10.7961 14.3249 11.6667 14.3249C12.5373 14.3249 13.3557 14.703 13.9476 15.3482L13.9486 15.3492C14.2413 15.6693 14.6214 15.8332 15 15.8332C15.3787 15.8332 15.7587 15.6694 16.0514 15.3493L16.8848 14.4376C17.1954 14.0979 17.7225 14.0743 18.0622 14.3848Z" fill="#1774F7"/>
<path fill-rule="evenodd" clip-rule="evenodd" d="M13.1607 2.32727C14.1765 1.31148 15.8234 1.31148 16.8392 2.32727C17.855 3.34307 17.855 4.98999 16.8392 6.00579L6.37025 16.4747C6.35375 16.4912 6.3374 16.5076 6.32119 16.5239C6.08165 16.7638 5.87045 16.9754 5.61583 17.1315C5.39215 17.2685 5.14829 17.3695 4.8932 17.4308C4.60283 17.5005 4.30387 17.5002 3.96479 17.4999C3.94184 17.4999 3.9187 17.4999 3.89537 17.4999H2.49992C2.03968 17.4999 1.66659 17.1268 1.66659 16.6665V15.2711C1.66659 15.2478 1.66657 15.2246 1.66655 15.2017C1.66623 14.8626 1.66595 14.5636 1.73566 14.2733C1.79691 14.0182 1.89792 13.7743 2.03499 13.5506C2.19102 13.296 2.40261 13.0848 2.6426 12.8453C2.65885 12.8291 2.67522 12.8127 2.69172 12.7962L13.1607 2.32727Z" fill="#1774F7"/>
</g>
</g>
</svg>
