<svg width="24" height="24" viewBox="0 0 24 24" fill="none" xmlns="http://www.w3.org/2000/svg">
<path fill-rule="evenodd" clip-rule="evenodd" d="M12 3C7.03743 3 3 7.03743 3 12C3 16.9626 7.03743 21 12 21C16.9626 21 21 16.9626 21 12C21 7.03743 16.9626 3 12 3ZM12 4.35C16.233 4.35 19.65 7.76703 19.65 12C19.65 16.233 16.233 19.65 12 19.65C7.76702 19.65 4.35 16.233 4.35 12C4.35 7.76703 7.76702 4.35 12 4.35ZM9.3 8.625C8.67868 8.625 8.175 9.12868 8.175 9.75C8.175 10.3713 8.67868 10.875 9.3 10.875C9.92132 10.875 10.425 10.3713 10.425 9.75C10.425 9.12868 9.92132 8.625 9.3 8.625ZM14.025 9.3C13.7816 9.29656 13.5551 9.42445 13.4324 9.63471C13.3097 9.84497 13.3097 10.105 13.4324 10.3153C13.5551 10.5255 13.7816 10.6534 14.025 10.65H15.825C16.0684 10.6534 16.2949 10.5255 16.4176 10.3153C16.5403 10.105 16.5403 9.84497 16.4176 9.63471C16.2949 9.42445 16.0684 9.29656 15.825 9.3H14.025ZM16.2917 12.4412C15.9962 12.4353 15.7313 12.6223 15.6378 12.9026C15.24 14.0449 14.3892 14.9852 13.1725 15.404H13.1716C12.7112 15.5626 12.245 15.6323 11.7864 15.6246C11.5452 15.6205 11.3202 15.7454 11.1961 15.9522C11.0719 16.159 11.0676 16.4163 11.1846 16.6272C11.3017 16.8381 11.5224 16.9706 11.7636 16.9746C12.376 16.9849 13.0013 16.8905 13.6119 16.6802C15.2373 16.1207 16.3911 14.8439 16.9122 13.3474C16.9868 13.1427 16.9581 12.9145 16.835 12.7347C16.7119 12.5549 16.5095 12.4456 16.2917 12.4412Z" fill="#090710"/>
</svg>
