<svg width="30" height="30" viewBox="0 0 30 30" fill="none" xmlns="http://www.w3.org/2000/svg">
<g id="file-02">
<path id="Icon" d="M17.5 13.75H10M12.5 18.75H10M20 8.75H10M25 8.5V21.5C25 23.6002 25 24.6503 24.5913 25.4525C24.2317 26.1581 23.6581 26.7317 22.9525 27.0913C22.1503 27.5 21.1002 27.5 19 27.5H11C8.8998 27.5 7.8497 27.5 7.04754 27.0913C6.34193 26.7317 5.76825 26.1581 5.40873 25.4525C5 24.6503 5 23.6002 5 21.5V8.5C5 6.3998 5 5.3497 5.40873 4.54754C5.76825 3.84193 6.34193 3.26825 7.04754 2.90873C7.8497 2.5 8.8998 2.5 11 2.5H19C21.1002 2.5 22.1503 2.5 22.9525 2.90873C23.6581 3.26825 24.2317 3.84193 24.5913 4.54754C25 5.3497 25 6.3998 25 8.5Z" stroke="black" stroke-width="2" stroke-linecap="round" stroke-linejoin="round"/>
</g>
</svg>
