<svg width="24" height="24" viewBox="0 0 24 24" fill="none" xmlns="http://www.w3.org/2000/svg">
<path d="M14 11.1H8.6M10.4 14.7H8.6M15.8 7.5H8.6M19.4 7.32V16.68C19.4 18.1921 19.4 18.9482 19.1057 19.5258C18.8469 20.0338 18.4338 20.4469 17.9258 20.7057C17.3482 21 16.5921 21 15.08 21H9.32C7.80786 21 7.05179 21 6.47423 20.7057C5.96619 20.4469 5.55314 20.0338 5.29428 19.5258C5 18.9482 5 18.1921 5 16.68V7.32C5 5.80786 5 5.05179 5.29428 4.47423C5.55314 3.96619 5.96619 3.55314 6.47423 3.29428C7.05179 3 7.80786 3 9.32 3H15.08C16.5921 3 17.3482 3 17.9258 3.29428C18.4338 3.55314 18.8469 3.96619 19.1057 4.47423C19.4 5.05179 19.4 5.80786 19.4 7.32Z" stroke="black" stroke-width="1.5" stroke-linecap="round" stroke-linejoin="round"/>
</svg>
