<svg width="24" height="24" viewBox="0 0 24 24" fill="none" xmlns="http://www.w3.org/2000/svg">
<g id="icon/info">
<path id="Shape" fill-rule="evenodd" clip-rule="evenodd" d="M12 3C7.03743 3 3 7.03743 3 12C3 16.9626 7.03743 21 12 21C16.9626 21 21 16.9626 21 12C21 7.03743 16.9626 3 12 3ZM12 4.35C16.233 4.35 19.65 7.76703 19.65 12C19.65 16.233 16.233 19.65 12 19.65C7.76702 19.65 4.35 16.233 4.35 12C4.35 7.76703 7.76702 4.35 12 4.35ZM12 7.5C11.5029 7.5 11.1 7.90294 11.1 8.4C11.1 8.89706 11.5029 9.3 12 9.3C12.4971 9.3 12.9 8.89706 12.9 8.4C12.9 7.90294 12.4971 7.5 12 7.5ZM11.9895 10.6403C11.617 10.6462 11.3197 10.9525 11.325 11.325V16.275C11.3216 16.5184 11.4495 16.7449 11.6597 16.8676C11.87 16.9903 12.13 16.9903 12.3403 16.8676C12.5505 16.7449 12.6784 16.5184 12.675 16.275V11.325C12.6776 11.1425 12.6062 10.9667 12.477 10.8377C12.3479 10.7087 12.172 10.6375 11.9895 10.6403Z" fill="#090710"/>
</g>
</svg>
