<svg width="30" height="30" viewBox="0 0 30 30" fill="none" xmlns="http://www.w3.org/2000/svg">
<g id="message-chat-circle">
<path id="Icon" d="M7.61796 14.036C7.54026 13.5353 7.49995 13.0223 7.49995 12.5C7.49995 6.97715 12.0066 2.5 17.5657 2.5C23.1249 2.5 27.6315 6.97715 27.6315 12.5C27.6315 13.7476 27.4016 14.9418 26.9814 16.0431C26.8942 16.2719 26.8506 16.3862 26.8307 16.4755C26.8111 16.564 26.8036 16.6262 26.8014 16.7168C26.7993 16.8082 26.8117 16.909 26.8365 17.1104L27.3397 21.1982C27.3942 21.6407 27.4214 21.8619 27.3478 22.0228C27.2833 22.1637 27.1687 22.2757 27.0264 22.3369C26.8639 22.4068 26.6433 22.3744 26.2021 22.3098L22.2206 21.7261C22.0127 21.6957 21.9087 21.6804 21.8141 21.681C21.7204 21.6815 21.6556 21.6884 21.5639 21.7077C21.4713 21.7272 21.3529 21.7715 21.1162 21.8602C20.0121 22.2737 18.8155 22.5 17.5657 22.5C17.043 22.5 16.5296 22.4604 16.0283 22.3841M9.53947 27.5C13.2456 27.5 16.25 24.422 16.25 20.625C16.25 16.828 13.2456 13.75 9.53947 13.75C5.83335 13.75 2.82895 16.828 2.82895 20.625C2.82895 21.3882 2.95034 22.1224 3.17444 22.8084C3.26916 23.0984 3.31653 23.2434 3.33207 23.3424C3.3483 23.4458 3.35114 23.5039 3.3451 23.6084C3.33931 23.7085 3.31427 23.8216 3.26418 24.0479L2.5 27.5L6.2435 26.9887C6.44783 26.9608 6.55 26.9469 6.63921 26.9475C6.73315 26.9481 6.78301 26.9532 6.87514 26.9716C6.96263 26.989 7.0927 27.0349 7.35284 27.1267C8.03824 27.3687 8.77388 27.5 9.53947 27.5Z" stroke="black" stroke-width="2" stroke-linecap="round" stroke-linejoin="round"/>
</g>
</svg>
