<svg width="24" height="24" viewBox="0 0 24 24" fill="none" xmlns="http://www.w3.org/2000/svg">
<g id="icon/Message">
<path id="Shape" fill-rule="evenodd" clip-rule="evenodd" d="M21 12C21 7.03695 16.9642 3 12.0035 3C7.04279 3 3.00695 7.03695 3.00695 12C3.00695 13.4333 3.35332 14.8539 4.01096 16.1274L3.04879 19.573C2.85028 20.3431 3.26659 20.9858 4.13332 21C4.81331 21.0111 5.2945 20.9062 5.73802 20.7761L6.3952 20.5736C6.84134 20.4412 7.33038 20.3292 8.02346 20.3284C8.69571 20.3276 9.15992 20.4414 9.60901 20.5754L9.99474 20.6931C10.5161 20.8509 11.0897 21 12.0035 21C16.9642 21 21 16.9626 21 12ZM7.09 9.87093C7.22631 9.6373 7.47779 9.4952 7.74817 9.49902H16.2449C16.5153 9.4952 16.7667 9.6373 16.903 9.87093C17.0393 10.1046 17.0393 10.3935 16.903 10.6271C16.7667 10.8607 16.5153 11.0028 16.2449 10.999H7.74817C7.47779 11.0028 7.22631 10.8607 7.09 10.6271C6.9537 10.3935 6.9537 10.1046 7.09 9.87093ZM7.74817 12.999C7.47779 12.9952 7.22631 13.1373 7.09 13.3709C6.9537 13.6046 6.9537 13.8935 7.09 14.1271C7.22631 14.3607 7.47779 14.5028 7.74817 14.499H14.2457C14.516 14.5028 14.7675 14.3607 14.9038 14.1271C15.0401 13.8935 15.0401 13.6046 14.9038 13.3709C14.7675 13.1373 14.516 12.9952 14.2457 12.999H7.74817ZM4.50637 12C4.50637 7.86554 7.87073 4.5 12.0035 4.5C16.1362 4.5 19.5006 7.86554 19.5006 12C19.5006 16.1342 16.1361 19.5 12.0035 19.5C11.3599 19.5 10.9995 19.4325 10.3392 19.2301L9.82677 19.0776C9.20013 18.904 8.69911 18.8276 8.02178 18.8284C7.13065 18.8294 6.57175 18.9436 5.65005 19.2338L5.21463 19.3647C5.04429 19.4116 4.89896 19.4444 4.75715 19.466L4.63032 19.483L5.61372 15.9629L5.34312 15.4389L5.20003 15.1464C4.74469 14.1615 4.50637 13.0839 4.50637 12Z" fill="#090710"/>
</g>
</svg>
