<svg width="30" height="30" viewBox="0 0 30 30" fill="none" xmlns="http://www.w3.org/2000/svg">
<g id="message-chat-circle">
<g id="Solid">
<path fill-rule="evenodd" clip-rule="evenodd" d="M1.57897 20.625C1.57897 16.1664 5.11465 12.5 9.53949 12.5C13.9643 12.5 17.5 16.1664 17.5 20.625C17.5 25.0836 13.9643 28.75 9.53949 28.75C8.62993 28.75 7.75372 28.5938 6.93684 28.3055C6.80183 28.2578 6.71808 28.2283 6.65666 28.208C6.64551 28.2043 6.63639 28.2014 6.62909 28.1991L6.6223 28.1998C6.57942 28.2046 6.52098 28.2125 6.41266 28.2273L2.66916 28.7385C2.26409 28.7938 1.85757 28.6476 1.5806 28.3469C1.30362 28.0461 1.1912 27.629 1.27956 27.2298L2.04374 23.7777C2.0703 23.6578 2.08451 23.593 2.09363 23.5454C2.09415 23.5427 2.09506 23.5379 2.09506 23.5379C2.09278 23.53 2.08991 23.5202 2.08631 23.5083C2.06573 23.4401 2.03546 23.3472 1.98625 23.1966C1.72164 22.3866 1.57897 21.5214 1.57897 20.625Z" fill="#1774F7"/>
<path d="M6.43442 10.4657C7.4064 10.1634 8.44244 10 9.52235 10C15.4141 10 20.0002 14.8633 20.0002 20.625C20.0002 21.642 19.8573 22.6311 19.5895 23.5704C20.267 23.4487 20.9241 23.2669 21.5547 23.0307C21.6437 22.9974 21.7325 22.9634 21.8223 22.9326C21.8949 22.941 21.9671 22.9523 22.0393 22.9629L26.0555 23.5516C26.2451 23.5795 26.4602 23.6111 26.6478 23.6218C26.8554 23.6336 27.1782 23.6323 27.5202 23.4852C27.9474 23.3015 28.291 22.9657 28.4845 22.5429C28.6394 22.2044 28.6481 21.8817 28.6411 21.6739C28.6348 21.486 28.6081 21.2702 28.5847 21.08L28.0772 16.9577C28.064 16.8505 28.0571 16.7942 28.0532 16.7529C28.0751 16.6626 28.1164 16.5753 28.1494 16.4887C28.6229 15.2474 28.8816 13.9023 28.8816 12.5C28.8816 6.27908 23.8076 1.25 17.5658 1.25C12.0211 1.25 7.39787 5.21854 6.43442 10.4657Z" fill="#1774F7"/>
</g>
</g>
</svg>
