<svg width="24" height="24" viewBox="0 0 24 24" fill="none" xmlns="http://www.w3.org/2000/svg">
<g id="monitor-02">
<path id="Icon" d="M6.45745 17.4C7.52529 16.8878 8.72797 16.6 10 16.6C11.272 16.6 12.4747 16.8878 13.5425 17.4M5.84 14.2H14.16C15.5041 14.2 16.1762 14.2 16.6896 13.9384C17.1412 13.7083 17.5083 13.3412 17.7384 12.8896C18 12.3762 18 11.7041 18 10.36V6.84C18 5.49587 18 4.82381 17.7384 4.31042C17.5083 3.85883 17.1412 3.49168 16.6896 3.26158C16.1762 3 15.5041 3 14.16 3H5.84C4.49587 3 3.82381 3 3.31042 3.26158C2.85883 3.49168 2.49168 3.85883 2.26158 4.31042C2 4.82381 2 5.49587 2 6.84V10.36C2 11.7041 2 12.3762 2.26158 12.8896C2.49168 13.3412 2.85883 13.7083 3.31042 13.9384C3.82381 14.2 4.49587 14.2 5.84 14.2Z" stroke="black" stroke-width="2" stroke-linecap="round" stroke-linejoin="round"/>
</g>
</svg>
