<svg width="24" height="24" viewBox="0 0 24 24" fill="none" xmlns="http://www.w3.org/2000/svg">
<g id="icon/more">
<path id="Shape" fill-rule="evenodd" clip-rule="evenodd" d="M12 3C7.03743 3 3 7.03743 3 12C3 16.9626 7.03743 21 12 21C16.9626 21 21 16.9626 21 12C21 7.03743 16.9626 3 12 3ZM12 4.35C16.233 4.35 19.65 7.76703 19.65 12C19.65 16.233 16.233 19.65 12 19.65C7.76702 19.65 4.35 16.233 4.35 12C4.35 7.76703 7.76702 4.35 12 4.35ZM7.95 10.65C7.20442 10.65 6.6 11.2544 6.6 12C6.6 12.7456 7.20442 13.35 7.95 13.35C8.69558 13.35 9.3 12.7456 9.3 12C9.3 11.2544 8.69558 10.65 7.95 10.65ZM12 10.65C11.2544 10.65 10.65 11.2544 10.65 12C10.65 12.7456 11.2544 13.35 12 13.35C12.7456 13.35 13.35 12.7456 13.35 12C13.35 11.2544 12.7456 10.65 12 10.65ZM16.05 10.65C15.3044 10.65 14.7 11.2544 14.7 12C14.7 12.7456 15.3044 13.35 16.05 13.35C16.7956 13.35 17.4 12.7456 17.4 12C17.4 11.2544 16.7956 10.65 16.05 10.65Z" fill="#090710"/>
</g>
</svg>
