<svg width="20" height="20" viewBox="0 0 20 20" fill="none" xmlns="http://www.w3.org/2000/svg">
<path id="Icon" d="M8.80078 1.9751H5.68047C4.04215 1.9751 3.22299 1.9751 2.59724 2.29394C2.04681 2.57439 1.5993 3.02191 1.31884 3.57234C1 4.19809 1 5.01725 1 6.65557V11.7261C1 12.6329 1 13.0863 1.09968 13.4583C1.37017 14.4678 2.15868 15.2563 3.16817 15.5268C3.54017 15.6265 3.99358 15.6265 4.90039 15.6265V17.9038C4.90039 18.4234 4.90039 18.6832 5.0069 18.8166C5.09953 18.9327 5.23999 19.0002 5.38847 19C5.55919 18.9998 5.76206 18.8375 6.16778 18.5129L8.49383 16.6521C8.969 16.272 9.20659 16.0819 9.47115 15.9467C9.70587 15.8268 9.95571 15.7392 10.2139 15.6862C10.5049 15.6265 10.8092 15.6265 11.4177 15.6265H12.8962C14.5345 15.6265 15.3537 15.6265 15.9794 15.3076C16.5299 15.0272 16.9774 14.5797 17.2578 14.0292C17.5767 13.4035 17.5767 12.5843 17.5767 10.946V10.751M17.695 1.8568C18.8374 2.9992 18.8374 4.85139 17.695 5.99379C16.5526 7.13619 14.7004 7.13619 13.558 5.99379C12.4156 4.85139 12.4156 2.9992 13.558 1.8568C14.7004 0.7144 16.5526 0.7144 17.695 1.8568Z" stroke="black" stroke-width="1.5" stroke-linecap="round" stroke-linejoin="round"/>
</svg>
