<svg width="52" height="54" viewBox="0 0 52 54" fill="none" xmlns="http://www.w3.org/2000/svg">
<g id="plus-circle" filter="url(#filter0_d_1562_19647)">
<path id="Solid" fill-rule="evenodd" clip-rule="evenodd" d="M26 2C13.8497 2 4 11.8497 4 24C4 36.1503 13.8497 46 26 46C38.1503 46 48 36.1503 48 24C48 11.8497 38.1503 2 26 2ZM26 14C27.1046 14 28 14.8954 28 16V22H34C35.1046 22 36 22.8954 36 24C36 25.1046 35.1046 26 34 26H28V32C28 33.1046 27.1046 34 26 34C24.8954 34 24 33.1046 24 32V26H18C16.8954 26 16 25.1046 16 24C16 22.8954 16.8954 22 18 22H24V16C24 14.8954 24.8954 14 26 14Z" fill="#1774F7"/>
</g>
<defs>
<filter id="filter0_d_1562_19647" x="-2" y="0" width="56" height="56" filterUnits="userSpaceOnUse" color-interpolation-filters="sRGB">
<feFlood flood-opacity="0" result="BackgroundImageFix"/>
<feColorMatrix in="SourceAlpha" type="matrix" values="0 0 0 0 0 0 0 0 0 0 0 0 0 0 0 0 0 0 127 0" result="hardAlpha"/>
<feOffset dy="4"/>
<feGaussianBlur stdDeviation="2"/>
<feComposite in2="hardAlpha" operator="out"/>
<feColorMatrix type="matrix" values="0 0 0 0 0 0 0 0 0 0 0 0 0 0 0 0 0 0 0.25 0"/>
<feBlend mode="normal" in2="BackgroundImageFix" result="effect1_dropShadow_1562_19647"/>
<feBlend mode="normal" in="SourceGraphic" in2="effect1_dropShadow_1562_19647" result="shape"/>
</filter>
</defs>
</svg>
