<svg width="24" height="24" viewBox="0 0 24 24" fill="none" xmlns="http://www.w3.org/2000/svg">
<g id="icon/privacy">
<path id="Shape" fill-rule="evenodd" clip-rule="evenodd" d="M11.6195 2.9998C11.4648 2.99498 11.3142 3.05012 11.1992 3.15371C11.1992 3.15371 8.19607 5.7998 4.6 5.7998C4.26864 5.79984 4.00003 6.06845 4 6.3998V11.3037C4 13.9749 5.23577 18.3704 11.3672 20.9529C11.5161 21.0156 11.6839 21.0156 11.8328 20.9529C17.9642 18.3704 19.2 13.9749 19.2 11.3037V6.3998C19.2 6.06845 18.9314 5.79984 18.6 5.7998C15.0039 5.7998 12.0008 3.15371 12.0008 3.15371C11.8958 3.05911 11.7608 3.00461 11.6195 2.9998ZM11.6 4.3709C12.4252 5.03435 14.8445 6.73468 18 6.9498V11.3037C18 13.6006 17.1174 17.3061 11.6 19.7303C6.08262 17.3061 5.2 13.6006 5.2 11.3037V6.9498C8.3555 6.73468 10.7748 5.03435 11.6 4.3709ZM11.6 7.7998C11.2624 7.7998 10.9351 7.84286 10.6219 7.92246C10.4655 7.96206 10.3536 8.10034 10.3344 8.26074L10.2961 8.58105C10.2737 8.76865 10.164 8.93431 10.0008 9.02871C9.83758 9.12311 9.63844 9.13514 9.46484 9.06074L9.17188 8.93574C9.02348 8.87254 8.84796 8.89983 8.73516 9.01543C8.27996 9.48343 7.93672 10.0612 7.75312 10.7068C7.70913 10.8624 7.77314 11.0292 7.90234 11.1264L8.16016 11.3201C8.31136 11.4333 8.4 11.6114 8.4 11.7998C8.4 11.9882 8.31136 12.1663 8.16016 12.2795L7.90234 12.4732C7.77314 12.57 7.70872 12.7372 7.75312 12.8928C7.93672 13.5384 8.27877 14.1162 8.73438 14.5842C8.84677 14.6998 9.02348 14.7275 9.17188 14.6639L9.46406 14.5389C9.63766 14.4645 9.8368 14.4769 10 14.5709C10.1632 14.6649 10.2729 14.8317 10.2953 15.0193L10.3344 15.3396C10.3536 15.5 10.4655 15.6383 10.6219 15.6779C10.9355 15.7571 11.2624 15.7998 11.6 15.7998C11.9376 15.7998 12.2649 15.7567 12.5781 15.6771C12.7345 15.6375 12.8464 15.4993 12.8656 15.3389L12.9039 15.0186C12.9263 14.831 13.036 14.6653 13.1992 14.5709C13.3624 14.4765 13.5616 14.4645 13.7352 14.5389L14.0281 14.6639C14.1765 14.7275 14.352 14.6998 14.4648 14.5842C14.92 14.1162 15.2633 13.5384 15.4469 12.8928C15.4909 12.7372 15.4269 12.5704 15.2977 12.4732L15.0398 12.2795C14.8886 12.1663 14.8 11.9886 14.8 11.7998C14.8 11.611 14.8886 11.4333 15.0398 11.3201L15.2977 11.1264C15.4269 11.0296 15.4913 10.8624 15.4469 10.7068C15.2633 10.0612 14.9212 9.48343 14.4656 9.01543C14.3532 8.89983 14.1765 8.87214 14.0281 8.93574L13.7359 9.06074C13.5623 9.13514 13.3632 9.12271 13.2 9.02871C13.0368 8.93471 12.9271 8.76787 12.9047 8.58027L12.8656 8.25996C12.8464 8.09996 12.7345 7.96128 12.5781 7.92168C12.2645 7.84248 11.9376 7.7998 11.6 7.7998ZM11.6 10.5998C12.2628 10.5998 12.8 11.137 12.8 11.7998C12.8 12.4626 12.2628 12.9998 11.6 12.9998C10.9372 12.9998 10.4 12.4626 10.4 11.7998C10.4 11.137 10.9372 10.5998 11.6 10.5998Z" fill="#090710"/>
</g>
</svg>
