<svg width="30" height="30" viewBox="0 0 30 30" fill="none" xmlns="http://www.w3.org/2000/svg">
<path fill-rule="evenodd" clip-rule="evenodd" d="M24.1075 19.9507C24.034 19.5452 24.0836 19.127 24.25 18.75C24.4085 18.3803 24.6716 18.065 25.0069 17.8429C25.3423 17.6208 25.7353 17.5016 26.1375 17.5H26.25C26.913 17.5 27.5489 17.2366 28.0178 16.7678C28.4866 16.2989 28.75 15.663 28.75 15C28.75 14.337 28.4866 13.7011 28.0178 13.2322C27.5489 12.7634 26.913 12.5 26.25 12.5H26.0375C25.6353 12.4984 25.2423 12.3792 24.9069 12.1571C24.5716 11.935 24.3085 11.6197 24.15 11.25V11.15C23.9836 10.773 23.934 10.3548 24.0075 9.94926C24.081 9.54377 24.2743 9.1696 24.5625 8.875L24.6375 8.8C24.8699 8.56782 25.0543 8.2921 25.1801 7.9886C25.306 7.68511 25.3707 7.35979 25.3707 7.03125C25.3707 6.70271 25.306 6.37739 25.1801 6.0739C25.0543 5.7704 24.8699 5.49468 24.6375 5.2625C24.4053 5.03006 24.1296 4.84566 23.8261 4.71985C23.5226 4.59404 23.1973 4.52928 22.8687 4.52928C22.5402 4.52928 22.2149 4.59404 21.9114 4.71985C21.6079 4.84566 21.3322 5.03006 21.1 5.2625L21.025 5.3375C20.7304 5.62567 20.3562 5.81898 19.9507 5.89251C19.5452 5.96603 19.127 5.91639 18.75 5.75C18.3803 5.59155 18.065 5.32844 17.8429 4.99308C17.6208 4.65772 17.5016 4.26473 17.5 3.8625V3.75C17.5 3.08696 17.2366 2.45107 16.7678 1.98223C16.2989 1.51339 15.663 1.25 15 1.25C14.337 1.25 13.7011 1.51339 13.2322 1.98223C12.7634 2.45107 12.5 3.08696 12.5 3.75V3.9625C12.4984 4.36473 12.3792 4.75772 12.1571 5.09308C11.935 5.42844 11.6197 5.69155 11.25 5.85H11.15C10.773 6.01639 10.3548 6.06603 9.94926 5.99251C9.54377 5.91898 9.1696 5.72567 8.875 5.4375L8.8 5.3625C8.56782 5.13006 8.2921 4.94566 7.9886 4.81985C7.68511 4.69404 7.35979 4.62928 7.03125 4.62928C6.70271 4.62928 6.37739 4.69404 6.0739 4.81985C5.7704 4.94566 5.49468 5.13006 5.2625 5.3625C5.03006 5.59468 4.84566 5.8704 4.71985 6.1739C4.59404 6.47739 4.52928 6.80271 4.52928 7.13125C4.52928 7.45979 4.59404 7.78511 4.71985 8.0886C4.84566 8.3921 5.03006 8.66782 5.2625 8.9L5.3375 8.975C5.62567 9.2696 5.81898 9.64377 5.89251 10.0493C5.96603 10.4548 5.91639 10.873 5.75 11.25C5.60714 11.6384 5.35074 11.9749 5.01412 12.2156C4.67751 12.4564 4.27624 12.5903 3.8625 12.6H3.75C3.08696 12.6 2.45107 12.8634 1.98223 13.3322C1.51339 13.8011 1.25 14.437 1.25 15.1C1.25 15.763 1.51339 16.3989 1.98223 16.8678C2.45107 17.3366 3.08696 17.6 3.75 17.6H3.9625C4.36473 17.6016 4.75772 17.7208 5.09308 17.9429C5.42844 18.165 5.69155 18.4803 5.85 18.85C6.01639 19.227 6.06603 19.6452 5.99251 20.0507C5.91898 20.4562 5.72567 20.8304 5.4375 21.125L5.3625 21.2C5.13006 21.4322 4.94566 21.7079 4.81985 22.0114C4.69404 22.3149 4.62928 22.6402 4.62928 22.9688C4.62928 23.2973 4.69404 23.6226 4.81985 23.9261C4.94566 24.2296 5.13006 24.5053 5.3625 24.7375C5.59468 24.9699 5.8704 25.1543 6.1739 25.2801C6.47739 25.406 6.80271 25.4707 7.13125 25.4707C7.45979 25.4707 7.78511 25.406 8.0886 25.2801C8.3921 25.1543 8.66782 24.9699 8.9 24.7375L8.975 24.6625C9.2696 24.3743 9.64377 24.181 10.0493 24.1075C10.4548 24.034 10.873 24.0836 11.25 24.25C11.6384 24.3929 11.9749 24.6493 12.2156 24.9859C12.4564 25.3225 12.5903 25.7238 12.6 26.1375V26.25C12.6 26.913 12.8634 27.5489 13.3322 28.0178C13.8011 28.4866 14.437 28.75 15.1 28.75C15.763 28.75 16.3989 28.4866 16.8678 28.0178C17.3366 27.5489 17.6 26.913 17.6 26.25V26.0375C17.6016 25.6353 17.7208 25.2423 17.9429 24.9069C18.165 24.5716 18.4803 24.3085 18.85 24.15C19.227 23.9836 19.6452 23.934 20.0507 24.0075C20.4562 24.081 20.8304 24.2743 21.125 24.5625L21.2 24.6375C21.4322 24.8699 21.7079 25.0543 22.0114 25.1801C22.3149 25.306 22.6402 25.3707 22.9688 25.3707C23.2973 25.3707 23.6226 25.306 23.9261 25.1801C24.2296 25.0543 24.5053 24.8699 24.7375 24.6375C24.9699 24.4053 25.1543 24.1296 25.2801 23.8261C25.406 23.5226 25.4707 23.1973 25.4707 22.8687C25.4707 22.5402 25.406 22.2149 25.2801 21.9114C25.1543 21.6079 24.9699 21.3322 24.7375 21.1L24.6625 21.025C24.3743 20.7304 24.181 20.3562 24.1075 19.9507ZM18.75 15C18.75 17.0711 17.0711 18.75 15 18.75C12.9289 18.75 11.25 17.0711 11.25 15C11.25 12.9289 12.9289 11.25 15 11.25C17.0711 11.25 18.75 12.9289 18.75 15Z" fill="#1774F7"/>
</svg>
