<svg width="16" height="16" viewBox="0 0 16 16" fill="none" xmlns="http://www.w3.org/2000/svg">
<g id="slash-circle-01">
<path id="Solid" fill-rule="evenodd" clip-rule="evenodd" d="M8.5 1C4.35786 1 1 4.35786 1 8.5C1 12.6421 4.35786 16 8.5 16C12.6421 16 16 12.6421 16 8.5C16 4.35786 12.6421 1 8.5 1ZM4.66976 3.70552C5.71954 2.86578 7.05113 2.36364 8.5 2.36364C11.889 2.36364 14.6364 5.11098 14.6364 8.5C14.6364 9.94887 14.1342 11.2805 13.2945 12.3302L4.66976 3.70552ZM3.70552 4.66976C2.86578 5.71954 2.36364 7.05113 2.36364 8.5C2.36364 11.889 5.11098 14.6364 8.5 14.6364C9.94887 14.6364 11.2805 14.1342 12.3302 13.2945L3.70552 4.66976Z" fill="white"/>
</g>
</svg>
