<svg width="31" height="29" viewBox="0 0 31 29" fill="none" xmlns="http://www.w3.org/2000/svg">
<rect x="0.625" width="30.2083" height="29" rx="6" fill="#FBB500"/>
<path d="M11.9583 14.5001H15.5V18.0417M9.13208 14.5001H9.125M12.6738 18.0417H12.6667M15.5071 20.8751H15.5M21.8821 14.5001H21.875M9.125 18.0417H10.1875M17.9792 14.5001H19.3958M9.125 20.8751H12.6667M15.5 7.41675V11.6667M19.4667 20.8751H20.7417C21.1384 20.8751 21.3367 20.8751 21.4882 20.7979C21.6215 20.73 21.7299 20.6216 21.7978 20.4883C21.875 20.3368 21.875 20.1385 21.875 19.7417V18.4667C21.875 18.07 21.875 17.8717 21.7978 17.7202C21.7299 17.5869 21.6215 17.4785 21.4882 17.4106C21.3367 17.3334 21.1384 17.3334 20.7417 17.3334H19.4667C19.07 17.3334 18.8716 17.3334 18.7201 17.4106C18.5868 17.4785 18.4784 17.5869 18.4105 17.7202C18.3333 17.8717 18.3333 18.07 18.3333 18.4667V19.7417C18.3333 20.1385 18.3333 20.3368 18.4105 20.4883C18.4784 20.6216 18.5868 20.73 18.7201 20.7979C18.8716 20.8751 19.07 20.8751 19.4667 20.8751ZM19.4667 11.6667H20.7417C21.1384 11.6667 21.3367 11.6667 21.4882 11.5895C21.6215 11.5216 21.7299 11.4133 21.7978 11.28C21.875 11.1285 21.875 10.9301 21.875 10.5334V9.25841C21.875 8.86171 21.875 8.66336 21.7978 8.51184C21.7299 8.37856 21.6215 8.2702 21.4882 8.20229C21.3367 8.12508 21.1384 8.12508 20.7417 8.12508H19.4667C19.07 8.12508 18.8716 8.12508 18.7201 8.20229C18.5868 8.2702 18.4784 8.37856 18.4105 8.51184C18.3333 8.66336 18.3333 8.86171 18.3333 9.25841V10.5334C18.3333 10.9301 18.3333 11.1285 18.4105 11.28C18.4784 11.4133 18.5868 11.5216 18.7201 11.5895C18.8716 11.6667 19.07 11.6667 19.4667 11.6667ZM10.2583 11.6667H11.5333C11.93 11.6667 12.1284 11.6667 12.2799 11.5895C12.4132 11.5216 12.5216 11.4133 12.5895 11.28C12.6667 11.1285 12.6667 10.9301 12.6667 10.5334V9.25841C12.6667 8.86171 12.6667 8.66336 12.5895 8.51184C12.5216 8.37856 12.4132 8.2702 12.2799 8.20229C12.1284 8.12508 11.93 8.12508 11.5333 8.12508H10.2583C9.86163 8.12508 9.66328 8.12508 9.51176 8.20229C9.37848 8.2702 9.27011 8.37856 9.2022 8.51184C9.125 8.66336 9.125 8.86171 9.125 9.25841V10.5334C9.125 10.9301 9.125 11.1285 9.2022 11.28C9.27011 11.4133 9.37848 11.5216 9.51176 11.5895C9.66328 11.6667 9.86163 11.6667 10.2583 11.6667Z" stroke="white" stroke-width="1.5" stroke-linecap="round" stroke-linejoin="round"/>
</svg>
